<?xml version="1.0" encoding="UTF-8"?>
<svg version="1.1" xmlns="http://www.w3.org/2000/svg" width="32" height="32">
<path d="M0 0 C10.56 0 21.12 0 32 0 C32 10.56 32 21.12 32 32 C21.44 32 10.88 32 0 32 C0 21.44 0 10.88 0 0 Z " fill="#F8F9F7" transform="translate(0,0)"/>
<path d="M0 0 C6.93 0 13.86 0 21 0 C19.53867783 4.38396651 18.416361 7.26562391 16 11 C17.65 11 19.3 11 21 11 C21 10.34 21 9.68 21 9 C21.99 9 22.98 9 24 9 C24 11.31 24 13.62 24 16 C16.08 16 8.16 16 0 16 C0 10.72 0 5.44 0 0 Z " fill="#868E7B" transform="translate(4,8)"/>
<path d="M0 0 C2.31 0 4.62 0 7 0 C5.35 3.3 3.7 6.6 2 10 C3.65 10 5.3 10 7 10 C7 9.34 7 8.68 7 8 C7.99 8 8.98 8 10 8 C10 10.31 10 12.62 10 15 C7.03 15 4.06 15 1 15 C1 14.34 1 13.68 1 13 C-1.64 13 -4.28 13 -7 13 C-7 12.34 -7 11.68 -7 11 C-6.030625 10.525625 -5.06125 10.05125 -4.0625 9.5625 C-1.19522563 8.29806053 -1.19522563 8.29806053 0 7 C0.04092937 4.66702567 0.04241723 2.33294775 0 0 Z " fill="#2E3621" transform="translate(18,9)"/>
<path d="M0 0 C1.32 0 2.64 0 4 0 C5.15774649 4.63098598 6.19218189 10.61563621 4 15 C2.68 15 1.36 15 0 15 C0 10.05 0 5.1 0 0 Z " fill="#020302" transform="translate(4,9)"/>
<path d="M0 0 C1.65 0 3.3 0 5 0 C5.625 1.8125 5.625 1.8125 6 4 C5.01 5.485 5.01 5.485 4 7 C3.01 7 2.02 7 1 7 C1 7.66 1 8.32 1 9 C-0.65 9 -2.3 9 -4 9 C-2.80100302 5.9168649 -1.52299523 2.93720508 0 0 Z " fill="#A9ACA3" transform="translate(24,10)"/>
<path d="M0 0 C2.5 0.125 2.5 0.125 3.5 1.125 C3.75 4.0625 3.75 4.0625 3.5 7.125 C2.51 7.785 1.52 8.445 0.5 9.125 C-0.49 8.795 -1.48 8.465 -2.5 8.125 C-2.5 7.465 -2.5 6.805 -2.5 6.125 C-1.18 6.125 0.14 6.125 1.5 6.125 C0.83131686 3.01167752 0.83131686 3.01167752 -1.5625 1.9375 C-2.201875 1.669375 -2.84125 1.40125 -3.5 1.125 C-2.5 0.125 -2.5 0.125 0 0 Z " fill="#0B0B0A" transform="translate(13.5,8.875)"/>
<path d="M0 0 C2.31 0 4.62 0 7 0 C5.68 2.64 4.36 5.28 3 8 C2.34 7.67 1.68 7.34 1 7 C0.59270772 4.67843403 0.25561323 2.3431213 0 0 Z " fill="#343C26" transform="translate(18,9)"/>
</svg>
